ffmpeg started on 2025-05-12 at 15:37:52
Report written to "D:\Convert\FFMetrics\reports\ssim_report-6.txt"
Log level: 32
Command line:
ffmpeg -hide_banner -nostdin -i "G:\\\xc0\xed\xe8\xec\xe5\\\xce\xed\xe3\xee\xe8\xed\xe3\xe8\\!_35_\xcb\xe5\xf2\xee_2024\\DreamCast\\\xcb\xfe\xe1\xee\xe2\xfc \xed\xe5\xe4\xe5\xeb\xe8\xec\xe0 \xec\xe5\xe6\xe4\xf3 \xe1\xeb\xe8\xe7\xed\xe5\xf6\xe0\xec\xe8\\[DC] Koi wa Futago de Warikirenai - 03_Telegram_HEVC.mkv" -i "G:\\\xc0\xed\xe8\xec\xe5\\\xce\xed\xe3\xee\xe8\xed\xe3\xe8\\!_35_\xcb\xe5\xf2\xee_2024\\DreamCast\\\xcb\xfe\xe1\xee\xe2\xfc \xed\xe5\xe4\xe5\xeb\xe8\xec\xe0 \xec\xe5\xe6\xe4\xf3 \xe1\xeb\xe8\xe7\xed\xe5\xf6\xe0\xec\xe8\\[DC] Koi wa Futago de Warikirenai - 03_Telegram.mp4" -lavfi "[0:v]settb=AVTB,setpts=PTS-STARTPTS,format=pix_fmts=yuv420p10,fps=24000/1001,scale=1920:1080:flags=bicubic[main];[1:v]settb=AVTB,setpts=PTS-STARTPTS,format=pix_fmts=yuv420p,fps=24000/1001,scale=1920:1080:flags=bicubic[ref];[main][ref]ssim=eof_action=endall:stats_file='D\\:/Convert/FFMetrics/logs/ssim_logfile-6.txt'" -f null -
Input #0, matroska,webm, from 'G:\Аниме\Онгоинги\!_35_Лето_2024\DreamCast\Любовь неделима между близнецами\[DC] Koi wa Futago de Warikirenai - 03_Telegram_HEVC.mkv':
  Metadata:
    COMPATIBLE_BRANDS: isomiso2avc1mp41
    MAJOR_BRAND     : isom
    MINOR_VERSION   : 512
    ENCODER         : Lavf61.7.100
  Duration: 00:23:46.73, start: -0.021000, bitrate: 811 kb/s
  Stream #0:0: Video: hevc (Main 10), yuv420p10le(tv, bt709, progressive), 1920x1080 [SAR 1:1 DAR 16:9], 23.98 fps, 23.98 tbr, 1k tbn (default)
      Metadata:
        HANDLER_NAME    : VideoHandler
        VENDOR_ID       : [0][0][0][0]
        ENCODER         : Lavc61.19.100 libx265
        BPS             : 614790
        DURATION        : 00:23:46.549708333
        NUMBER_OF_FRAMES: 34203
        NUMBER_OF_BYTES : 109628540
        _STATISTICS_WRITING_APP: mkvpropedit v66.0.0 ('Josie') 64-bit
        _STATISTICS_WRITING_DATE_UTC: 2025-05-07 14:54:58
        _STATISTICS_TAGS: BPS DURATION NUMBER_OF_FRAMES NUMBER_OF_BYTES
  Stream #0:1: Audio: aac (LC), 48000 Hz, stereo, fltp (default)
      Metadata:
        HANDLER_NAME    : SoundHandler
        VENDOR_ID       : [0][0][0][0]
        ENCODER         : Lavc61.19.100 aac
        BPS             : 192915
        DURATION        : 00:23:46.730000000
        NUMBER_OF_FRAMES: 66879
        NUMBER_OF_BYTES : 34404847
        _STATISTICS_WRITING_APP: mkvpropedit v66.0.0 ('Josie') 64-bit
        _STATISTICS_WRITING_DATE_UTC: 2025-05-07 14:54:58
        _STATISTICS_TAGS: BPS DURATION NUMBER_OF_FRAMES NUMBER_OF_BYTES
Input #1, mov,mp4,m4a,3gp,3g2,mj2, from 'G:\Аниме\Онгоинги\!_35_Лето_2024\DreamCast\Любовь неделима между близнецами\[DC] Koi wa Futago de Warikirenai - 03_Telegram.mp4':
  Metadata:
    major_brand     : isom
    minor_version   : 512
    compatible_brands: isomiso2avc1mp41
    encoder         : Lavf61.1.100
  Duration: 00:23:46.68, start: 0.000000, bitrate: 3753 kb/s
  Stream #1:0[0x1](und): Video: h264 (High) (avc1 / 0x31637661), yuv420p(tv, bt709, progressive), 1920x1080 [SAR 1:1 DAR 16:9], 3606 kb/s, 23.98 fps, 23.98 tbr, 24k tbn (default)
      Metadata:
        handler_name    : VideoHandler
        vendor_id       : [0][0][0][0]
        encoder         : Lavc61.3.100 h264_qsv
  Stream #1:1[0x2](und): Audio: aac (HE-AACv2) (mp4a / 0x6134706D), 48000 Hz, stereo, fltp, 144 kb/s (default)
      Metadata:
        handler_name    : SoundHandler
        vendor_id       : [0][0][0][0]
Stream mapping:
  Stream #0:0 (hevc) -> settb:default
  Stream #1:0 (h264) -> settb:default
  ssim:default -> Stream #0:0 (wrapped_avframe)
  Stream #0:1 -> #0:1 (aac (native) -> pcm_s16le (native))
Output #0, null, to 'pipe:':
  Metadata:
    COMPATIBLE_BRANDS: isomiso2avc1mp41
    MAJOR_BRAND     : isom
    MINOR_VERSION   : 512
    encoder         : Lavf61.7.100
  Stream #0:0: Video: wrapped_avframe, yuv420p10le(tv, bt709, progressive), 1920x1080 [SAR 1:1 DAR 16:9], q=2-31, 200 kb/s, 23.98 fps, 23.98 tbn
      Metadata:
        encoder         : Lavc61.19.100 wrapped_avframe
  Stream #0:1: Audio: pcm_s16le, 48000 Hz, stereo, s16, 1536 kb/s (default)
      Metadata:
        HANDLER_NAME    : SoundHandler
        VENDOR_ID       : [0][0][0][0]
        _STATISTICS_TAGS: BPS DURATION NUMBER_OF_FRAMES NUMBER_OF_BYTES
        BPS             : 192915
        DURATION        : 00:23:46.730000000
        NUMBER_OF_FRAMES: 66879
        NUMBER_OF_BYTES : 34404847
        _STATISTICS_WRITING_APP: mkvpropedit v66.0.0 ('Josie') 64-bit
        _STATISTICS_WRITING_DATE_UTC: 2025-05-07 14:54:58
        encoder         : Lavc61.19.100 pcm_s16le
frame=  170 fps=0.0 q=-0.0 size=N/A time=00:00:07.09 bitrate=N/A speed=13.5x    frame=  412 fps=400 q=-0.0 size=N/A time=00:00:17.18 bitrate=N/A speed=16.7x    frame=  676 fps=435 q=-0.0 size=N/A time=00:00:28.19 bitrate=N/A speed=18.2x    frame=  966 fps=466 q=-0.0 size=N/A time=00:00:40.29 bitrate=N/A speed=19.4x    frame= 1168 fps=453 q=-0.0 size=N/A time=00:00:48.71 bitrate=N/A speed=18.9x    frame= 1365 fps=440 q=-0.0 size=N/A time=00:00:56.93 bitrate=N/A speed=18.3x    frame= 1570 fps=435 q=-0.0 size=N/A time=00:01:05.48 bitrate=N/A speed=18.1x    frame= 1773 fps=429 q=-0.0 size=N/A time=00:01:13.94 bitrate=N/A speed=17.9x    frame= 1946 fps=419 q=-0.0 size=N/A time=00:01:21.16 bitrate=N/A speed=17.5x    frame= 2124 fps=411 q=-0.0 size=N/A time=00:01:28.58 bitrate=N/A speed=17.1x    frame= 2304 fps=406 q=-0.0 size=N/A time=00:01:36.09 bitrate=N/A speed=16.9x    frame= 2492 fps=402 q=-0.0 size=N/A time=00:01:43.93 bitrate=N/A speed=16.8x    frame= 2677 fps=399 q=-0.0 size=N/A time=00:01:51.65 bitrate=N/A speed=16.7x    frame= 2869 fps=397 q=-0.0 size=N/A time=00:01:59.66 bitrate=N/A speed=16.6x    frame= 3098 fps=401 q=-0.0 size=N/A time=00:02:09.21 bitrate=N/A speed=16.7x    frame= 3341 fps=405 q=-0.0 size=N/A time=00:02:19.34 bitrate=N/A speed=16.9x    frame= 3599 fps=410 q=-0.0 size=N/A time=00:02:30.10 bitrate=N/A speed=17.1x    frame= 3867 fps=416 q=-0.0 size=N/A time=00:02:41.28 bitrate=N/A speed=17.4x    frame= 4131 fps=421 q=-0.0 size=N/A time=00:02:52.29 bitrate=N/A speed=17.6x    frame= 4387 fps=425 q=-0.0 size=N/A time=00:03:02.97 bitrate=N/A speed=17.7x    frame= 4661 fps=430 q=-0.0 size=N/A time=00:03:14.40 bitrate=N/A speed=17.9x    frame= 4926 fps=434 q=-0.0 size=N/A time=00:03:25.45 bitrate=N/A speed=18.1x    frame= 5187 fps=437 q=-0.0 size=N/A time=00:03:36.34 bitrate=N/A speed=18.2x    frame= 5466 fps=441 q=-0.0 size=N/A time=00:03:47.97 bitrate=N/A speed=18.4x    frame= 5742 fps=445 q=-0.0 size=N/A time=00:03:59.48 bitrate=N/A speed=18.6x    frame= 6005 fps=448 q=-0.0 size=N/A time=00:04:10.45 bitrate=N/A speed=18.7x    frame= 6258 fps=449 q=-0.0 size=N/A time=00:04:21.01 bitrate=N/A speed=18.7x    frame= 6479 fps=448 q=-0.0 size=N/A time=00:04:30.22 bitrate=N/A speed=18.7x    frame= 6740 fps=451 q=-0.0 size=N/A time=00:04:41.11 bitrate=N/A speed=18.8x    frame= 7005 fps=453 q=-0.0 size=N/A time=00:04:52.16 bitrate=N/A speed=18.9x    frame= 7265 fps=455 q=-0.0 size=N/A time=00:05:03.01 bitrate=N/A speed=  19x    frame= 7512 fps=455 q=-0.0 size=N/A time=00:05:13.31 bitrate=N/A speed=  19x    frame= 7767 fps=456 q=-0.0 size=N/A time=00:05:23.94 bitrate=N/A speed=  19x    frame= 8027 fps=458 q=-0.0 size=N/A time=00:05:34.79 bitrate=N/A speed=19.1x    frame= 8283 fps=459 q=-0.0 size=N/A time=00:05:45.47 bitrate=N/A speed=19.1x    frame= 8543 fps=460 q=-0.0 size=N/A time=00:05:56.31 bitrate=N/A speed=19.2x    frame= 8805 fps=461 q=-0.0 size=N/A time=00:06:07.24 bitrate=N/A speed=19.2x    frame= 9061 fps=462 q=-0.0 size=N/A time=00:06:17.91 bitrate=N/A speed=19.3x    frame= 9322 fps=463 q=-0.0 size=N/A time=00:06:28.80 bitrate=N/A speed=19.3x    frame= 9583 fps=464 q=-0.0 size=N/A time=00:06:39.69 bitrate=N/A speed=19.4x    frame= 9840 fps=465 q=-0.0 size=N/A time=00:06:50.41 bitrate=N/A speed=19.4x    frame=10111 fps=466 q=-0.0 size=N/A time=00:07:01.71 bitrate=N/A speed=19.4x    frame=10372 fps=467 q=-0.0 size=N/A time=00:07:12.59 bitrate=N/A speed=19.5x    frame=10636 fps=468 q=-0.0 size=N/A time=00:07:23.60 bitrate=N/A speed=19.5x    frame=10894 fps=469 q=-0.0 size=N/A time=00:07:34.37 bitrate=N/A speed=19.5x    frame=11150 fps=469 q=-0.0 size=N/A time=00:07:45.04 bitrate=N/A speed=19.6x    frame=11412 fps=470 q=-0.0 size=N/A time=00:07:55.97 bitrate=N/A speed=19.6x    frame=11667 fps=471 q=-0.0 size=N/A time=00:08:06.61 bitrate=N/A speed=19.6x    frame=11928 fps=471 q=-0.0 size=N/A time=00:08:17.49 bitrate=N/A speed=19.7x    frame=12186 fps=472 q=-0.0 size=N/A time=00:08:28.25 bitrate=N/A speed=19.7x    frame=12443 fps=473 q=-0.0 size=N/A time=00:08:38.97 bitrate=N/A speed=19.7x    frame=12704 fps=473 q=-0.0 size=N/A time=00:08:49.86 bitrate=N/A speed=19.7x    frame=12959 fps=474 q=-0.0 size=N/A time=00:09:00.49 bitrate=N/A speed=19.8x    frame=13215 fps=474 q=-0.0 size=N/A time=00:09:11.17 bitrate=N/A speed=19.8x    frame=13485 fps=475 q=-0.0 size=N/A time=00:09:22.43 bitrate=N/A speed=19.8x    frame=13743 fps=475 q=-0.0 size=N/A time=00:09:33.19 bitrate=N/A speed=19.8x    frame=14007 fps=476 q=-0.0 size=N/A time=00:09:44.20 bitrate=N/A speed=19.8x    frame=14262 fps=476 q=-0.0 size=N/A time=00:09:54.84 bitrate=N/A speed=19.9x    frame=14510 fps=476 q=-0.0 size=N/A time=00:10:05.18 bitrate=N/A speed=19.9x    frame=14755 fps=476 q=-0.0 size=N/A time=00:10:15.40 bitrate=N/A speed=19.9x    frame=15020 fps=477 q=-0.0 size=N/A time=00:10:26.45 bitrate=N/A speed=19.9x    frame=15284 fps=477 q=-0.0 size=N/A time=00:10:37.47 bitrate=N/A speed=19.9x    frame=15541 fps=478 q=-0.0 size=N/A time=00:10:48.18 bitrate=N/A speed=19.9x    frame=15807 fps=478 q=-0.0 size=N/A time=00:10:59.28 bitrate=N/A speed=  20x    frame=16055 fps=479 q=-0.0 size=N/A time=00:11:09.62 bitrate=N/A speed=  20x    frame=16307 fps=479 q=-0.0 size=N/A time=00:11:20.13 bitrate=N/A speed=  20x    frame=16558 fps=479 q=-0.0 size=N/A time=00:11:30.60 bitrate=N/A speed=  20x    frame=16818 fps=479 q=-0.0 size=N/A time=00:11:41.45 bitrate=N/A speed=  20x    frame=17078 fps=480 q=-0.0 size=N/A time=00:11:52.29 bitrate=N/A speed=  20x    frame=17341 fps=480 q=-0.0 size=N/A time=00:12:03.26 bitrate=N/A speed=  20x    frame=17614 fps=481 q=-0.0 size=N/A time=00:12:14.65 bitrate=N/A speed=  20x    frame=17877 fps=481 q=-0.0 size=N/A time=00:12:25.61 bitrate=N/A speed=20.1x    frame=18156 fps=482 q=-0.0 size=N/A time=00:12:37.25 bitrate=N/A speed=20.1x    frame=18410 fps=482 q=-0.0 size=N/A time=00:12:47.85 bitrate=N/A speed=20.1x    frame=18665 fps=482 q=-0.0 size=N/A time=00:12:58.48 bitrate=N/A speed=20.1x    frame=18916 fps=482 q=-0.0 size=N/A time=00:13:08.95 bitrate=N/A speed=20.1x    frame=19171 fps=482 q=-0.0 size=N/A time=00:13:19.59 bitrate=N/A speed=20.1x    frame=19422 fps=482 q=-0.0 size=N/A time=00:13:30.05 bitrate=N/A speed=20.1x    frame=19673 fps=482 q=-0.0 size=N/A time=00:13:40.52 bitrate=N/A speed=20.1x    frame=19925 fps=482 q=-0.0 size=N/A time=00:13:51.03 bitrate=N/A speed=20.1x    frame=20182 fps=482 q=-0.0 size=N/A time=00:14:01.75 bitrate=N/A speed=20.1x    frame=20383 fps=481 q=-0.0 size=N/A time=00:14:10.14 bitrate=N/A speed=20.1x    frame=20623 fps=481 q=-0.0 size=N/A time=00:14:20.15 bitrate=N/A speed=20.1x    frame=20880 fps=481 q=-0.0 size=N/A time=00:14:30.87 bitrate=N/A speed=20.1x    frame=21143 fps=482 q=-0.0 size=N/A time=00:14:41.83 bitrate=N/A speed=20.1x    frame=21410 fps=482 q=-0.0 size=N/A time=00:14:52.97 bitrate=N/A speed=20.1x    frame=21676 fps=482 q=-0.0 size=N/A time=00:15:04.06 bitrate=N/A speed=20.1x    frame=21940 fps=483 q=-0.0 size=N/A time=00:15:15.08 bitrate=N/A speed=20.1x    frame=22199 fps=483 q=-0.0 size=N/A time=00:15:25.88 bitrate=N/A speed=20.1x    frame=22476 fps=484 q=-0.0 size=N/A time=00:15:37.43 bitrate=N/A speed=20.2x    frame=22743 fps=484 q=-0.0 size=N/A time=00:15:48.57 bitrate=N/A speed=20.2x    frame=23012 fps=484 q=-0.0 size=N/A time=00:15:59.79 bitrate=N/A speed=20.2x    frame=23288 fps=485 q=-0.0 size=N/A time=00:16:11.30 bitrate=N/A speed=20.2x    frame=23557 fps=485 q=-0.0 size=N/A time=00:16:22.52 bitrate=N/A speed=20.2x    frame=23831 fps=486 q=-0.0 size=N/A time=00:16:33.95 bitrate=N/A speed=20.3x    frame=24097 fps=486 q=-0.0 size=N/A time=00:16:45.04 bitrate=N/A speed=20.3x    frame=24371 fps=486 q=-0.0 size=N/A time=00:16:56.47 bitrate=N/A speed=20.3x    frame=24635 fps=487 q=-0.0 size=N/A time=00:17:07.48 bitrate=N/A speed=20.3x    frame=24896 fps=487 q=-0.0 size=N/A time=00:17:18.37 bitrate=N/A speed=20.3x    frame=25157 fps=487 q=-0.0 size=N/A time=00:17:29.25 bitrate=N/A speed=20.3x    frame=25409 fps=487 q=-0.0 size=N/A time=00:17:39.76 bitrate=N/A speed=20.3x    frame=25662 fps=487 q=-0.0 size=N/A time=00:17:50.31 bitrate=N/A speed=20.3x    frame=25902 fps=487 q=-0.0 size=N/A time=00:18:00.32 bitrate=N/A speed=20.3x    frame=26123 fps=486 q=-0.0 size=N/A time=00:18:09.54 bitrate=N/A speed=20.3x    frame=26309 fps=485 q=-0.0 size=N/A time=00:18:17.30 bitrate=N/A speed=20.2x    frame=26482 fps=484 q=-0.0 size=N/A time=00:18:24.52 bitrate=N/A speed=20.2x    frame=26649 fps=482 q=-0.0 size=N/A time=00:18:31.48 bitrate=N/A speed=20.1x    frame=26827 fps=481 q=-0.0 size=N/A time=00:18:38.90 bitrate=N/A speed=20.1x    frame=27041 fps=480 q=-0.0 size=N/A time=00:18:47.83 bitrate=N/A speed=  20x    frame=27295 fps=480 q=-0.0 size=N/A time=00:18:58.42 bitrate=N/A speed=  20x    frame=27560 fps=481 q=-0.0 size=N/A time=00:19:09.48 bitrate=N/A speed=20.1x    frame=27829 fps=481 q=-0.0 size=N/A time=00:19:20.70 bitrate=N/A speed=20.1x    frame=28097 fps=481 q=-0.0 size=N/A time=00:19:31.87 bitrate=N/A speed=20.1x    frame=28359 fps=482 q=-0.0 size=N/A time=00:19:42.80 bitrate=N/A speed=20.1x    frame=28619 fps=482 q=-0.0 size=N/A time=00:19:53.65 bitrate=N/A speed=20.1x    frame=28884 fps=482 q=-0.0 size=N/A time=00:20:04.70 bitrate=N/A speed=20.1x    frame=29160 fps=483 q=-0.0 size=N/A time=00:20:16.21 bitrate=N/A speed=20.1x    frame=29432 fps=483 q=-0.0 size=N/A time=00:20:27.55 bitrate=N/A speed=20.1x    frame=29690 fps=483 q=-0.0 size=N/A time=00:20:38.32 bitrate=N/A speed=20.2x    frame=29958 fps=484 q=-0.0 size=N/A time=00:20:49.49 bitrate=N/A speed=20.2x    frame=30237 fps=484 q=-0.0 size=N/A time=00:21:01.13 bitrate=N/A speed=20.2x    frame=30510 fps=484 q=-0.0 size=N/A time=00:21:12.52 bitrate=N/A speed=20.2x    frame=30780 fps=485 q=-0.0 size=N/A time=00:21:23.78 bitrate=N/A speed=20.2x    frame=31045 fps=485 q=-0.0 size=N/A time=00:21:34.83 bitrate=N/A speed=20.2x    frame=31307 fps=485 q=-0.0 size=N/A time=00:21:45.76 bitrate=N/A speed=20.2x    frame=31572 fps=485 q=-0.0 size=N/A time=00:21:56.81 bitrate=N/A speed=20.2x    frame=31829 fps=485 q=-0.0 size=N/A time=00:22:07.53 bitrate=N/A speed=20.2x    frame=32095 fps=486 q=-0.0 size=N/A time=00:22:18.62 bitrate=N/A speed=20.3x    frame=32341 fps=486 q=-0.0 size=N/A time=00:22:28.88 bitrate=N/A speed=20.3x    frame=32549 fps=485 q=-0.0 size=N/A time=00:22:37.56 bitrate=N/A speed=20.2x    frame=32748 fps=484 q=-0.0 size=N/A time=00:22:45.86 bitrate=N/A speed=20.2x    frame=32958 fps=484 q=-0.0 size=N/A time=00:22:54.62 bitrate=N/A speed=20.2x    frame=33157 fps=483 q=-0.0 size=N/A time=00:23:02.92 bitrate=N/A speed=20.1x    frame=33382 fps=483 q=-0.0 size=N/A time=00:23:12.30 bitrate=N/A speed=20.1x    frame=33603 fps=482 q=-0.0 size=N/A time=00:23:21.52 bitrate=N/A speed=20.1x    frame=33836 fps=482 q=-0.0 size=N/A time=00:23:31.24 bitrate=N/A speed=20.1x    frame=34081 fps=482 q=-0.0 size=N/A time=00:23:41.46 bitrate=N/A speed=20.1x    [Parsed_ssim_10 @ 000001df8e81afc0] SSIM Y:0.994292 (22.435447) U:0.991078 (20.495144) V:0.991269 (20.589272) All:0.993253 (21.708662)
[out#0/null @ 000001df81ab6e00] video:14697KiB audio:267516KiB subtitle:0KiB other streams:0KiB global headers:0KiB muxing overhead: unknown
frame=34203 fps=482 q=-0.0 Lsize=N/A time=00:23:46.55 bitrate=N/A speed=20.1x    
